<?xml version="1.0" standalone="no"?>
<!DOCTYPE svg PUBLIC "-//W3C//DTD SVG 20010904//EN"
 "http://www.w3.org/TR/2001/REC-SVG-20010904/DTD/svg10.dtd">
<svg version="1.0" xmlns="http://www.w3.org/2000/svg"
 width="1024.000000pt" height="1024.000000pt" viewBox="0 0 1024.000000 1024.000000"
 preserveAspectRatio="xMidYMid meet">
<metadata>
Created by potrace 1.11, written by Peter Selinger 2001-2013
</metadata>
<g transform="translate(0.000000,1024.000000) scale(0.100000,-0.100000)"
fill="#000000" stroke="none">
<path d="M4810 10229 c-1254 -71 -2440 -611 -3331 -1516 -282 -287 -477 -531
-686 -858 -680 -1069 -934 -2368 -712 -3640 142 -812 506 -1619 1025 -2271
294 -369 647 -707 1024 -979 1121 -810 2536 -1128 3910 -881 817 147 1599 502
2260 1025 289 229 602 541 831 831 771 973 1164 2194 1101 3420 -35 675 -174
1258 -446 1868 -389 872 -1064 1656 -1881 2187 -917 596 -1985 877 -3095 814z
m475 -2268 c415 -44 771 -156 1042 -327 321 -203 545 -515 648 -904 75 -284
84 -638 24 -935 -146 -725 -718 -1225 -1559 -1364 -211 -34 -360 -41 -921 -41
l-539 0 0 -1070 0 -1070 -385 0 -385 0 0 2866 0 2866 983 -5 c652 -3 1019 -8
1092 -16z"/>
<path d="M3985 7358 c-3 -7 -4 -539 -3 -1183 l3 -1170 410 -3 c735 -5 962 22
1232 148 344 160 554 442 618 829 26 152 17 418 -18 552 -120 458 -417 714
-937 804 -138 24 -407 35 -868 35 -337 0 -434 -3 -437 -12z"/>
</g>
</svg>
